# AST/ASF file generated using VICON BodyLanguage
# -----------------------------------------------
:version 1.10
:name VICON
:units
  mass 1.0
  length 0.45
  angle deg
:documentation
   .ast/.asf automatically generated from VICON data using
   VICON BodyBuilder and BodyLanguage model FoxedUp or BRILLIANT.MOD
:root
   order TX TY TZ RX RY RZ
   axis XYZ
   position 0 0 0  
   orientation 0 0 0 
:bonedata
  begin
     id 1 
     name lhipjoint
     direction 0.70531 -0.63749 0.310071 
     length 2.59589 
     axis 0 0 0  XYZ
  end
  begin
     id 2 
     name lfemur
     direction 0.34202 -0.939693 0  
     length 6.19797  
     axis 0 0 20  XYZ
    dof rx ry rz
    limits (-160.0 20.0)
           (-70.0 70.0)
           (-60.0 70.0)
  end
  begin
     id 3 
     name ltibia
     direction 0.34202 -0.939693 0   
     length 7.80054   
     axis 0 0 20   XYZ
    dof rx
    limits (-10.0 170.0)
  end
  begin
     id 4 
     name lfoot
     direction 0.0828572 -0.227648 0.970212   
     length 1.88124   
     axis -90 7.62852e-016 20   XYZ
    dof rx rz
    limits (-45.0 90.0)
           (-70.0 20.0)
  end
  begin
     id 5 
     name ltoes
     direction 1.53544e-011 -4.219e-011 1   
     length 0.948015   
     axis -90 7.62852e-016 20   XYZ
    dof rx
    limits (-90.0 20.0)
  end
  begin
     id 6 
     name rhipjoint
     direction -0.730062 -0.614543 0.29891   
     length 2.69282  
     axis 0 0 0  XYZ 
  end
  begin
     id 7 
     name rfemur
     direction -0.34202 -0.939693 0   
     length 5.86298   
     axis 0 0 -20   XYZ
    dof rx ry rz
    limits (-160.0 20.0)
           (-70.0 70.0)
           (-70.0 60.0)
  end
  begin
     id 8 
     name rtibia
     direction -0.34202 -0.939693 0   
     length 7.72374   
     axis 0 0 -20   XYZ
    dof rx
    limits (-10.0 170.0)
 end
 begin
     id 9 
     name rfoot
     direction -0.0967421 -0.265797 0.959163   
     length 2.02368  
     axis -90 -7.62852e-016 -20   XYZ
    dof rx rz
    limits (-45.0 90.0)
           (-20.0 70.0)
  end
  begin
     id 10 
     name rtoes
     direction -1.53524e-011 -4.21768e-011 1   
     length 1.01373   
     axis -90 -7.62852e-016 -20   XYZ
    dof rx
    limits (-90.0 20.0)
  end
  begin
     id 11 
     name lowerback
     direction 0.00561702 0.992801 -0.119643   
     length 2.02816   
     axis 0 0 0   XYZ
    dof rx ry rz
    limits (-20.0 45.0)
           (-30.0 30.0)
           (-30.0 30.0)
  end
  begin
     id 12 
     name upperback
     direction 0.00155544 0.995735 -0.0922509   
     length 2.02265   
     axis 0 0 0   XYZ
    dof rx ry rz
    limits (-20.0 45.0)
           (-30.0 30.0)
           (-30.0 30.0)
  end
  begin
     id 13 
     name thorax
     direction -0.000937535 0.999317 -0.0369292   
     length 2.04823   
     axis 0 0 0   XYZ
    dof rx ry rz
    limits (-20.0 45.0)
           (-30.0 30.0)
           (-30.0 30.0)
  end
  begin
     id 14 
     name lowerneck
     direction -0.0813151 0.981659 0.172436   
     length 1.8875   
     axis 0 0 0   XYZ
    dof rx ry rz
    limits (-20.0 45.0)
           (-30.0 30.0)
           (-30.0 30.0)
  end
  begin
     id 15 
     name upperneck
     direction 0.119359 0.955672 -0.269157   
     length 1.92801   
     axis 0 0 0   XYZ
    dof rx ry rz
    limits (-20.0 45.0)
           (-30.0 30.0)
           (-30.0 30.0)
  end
  begin
     id 16
     name head
     direction 0.0421007 0.992672 -0.113268  
     length 1.95809  
     axis 0 0 0   XYZ
    dof rx ry rz
    limits (-20.0 45.0)
           (-30.0 30.0)
           (-30.0 30.0)
  end
  begin
     id 17 
     name lclavicle
     direction 0.944093 0.32865 -0.0260136  
     length 3.84992  
     axis 0 0 0   XYZ
    dof ry rz
    limits (-20.0 10.0)
           (0.0 20.0)
  end
  begin
     id 18 
     name lhumerus
     direction 1 -4.48979e-011 -1.27712e-029   
     length 5.53593   
     axis 180 -30 -90   XYZ
    dof rx ry rz
    limits (-60.0 90.0)
           (-90.0 90.0)
           (-90.0 90.0)
  end
  begin
     id 19
     name lradius
     direction 1 -4.48966e-011 1.00051e-028   
     length 3.13345   
     axis 180 -30 -90   XYZ
    dof rx
    limits (-10.0 170.0)
  end
  begin
     id 20
     name lwrist
     direction 1 -4.4896e-011 2.56952e-028   
     length 1.56673   
     axis -5.12785e-016 90 90   XYZ
    dof ry
    limits (-180.0 0.0)
 end
  begin
     id 21 
     name lhand
     direction 1 -4.48934e-011 5.13905e-028   
     length 0.713374   
     axis -3.27915e-016 90 90   XYZ
    dof rx rz
    limits (-90.0 90.0)
           (-45.0 45.0)
  end
  begin
     id 22 
     name lfingers
     direction 1 -4.48973e-011 1.02781e-027   
     length 0.575141   
     axis -6.5583e-016 90 90   XYZ
    dof rx
    limits (0.0 90.0)
  end
  begin
     id 23
     name lthumb
     direction 0.707107 -6.34883e-011 0.707107   
     length 0.82579   
     axis -90 45 2.85299e-015   XYZ
    dof rx rz
    limits (-45.0 45.0)
           (-45.0 45.0)
  end
  begin
     id 24 
     name rclavicle
     direction -0.936895 0.34884 0.0232243   
     length 3.53304  
     axis 0 0 0   XYZ 
    dof ry rz
    limits (-10.0 20.0)
           (-20.0 0.0)
  end
  begin
     id 25 
     name rhumerus
     direction -1 -4.48965e-011 1.05514e-027  
     length 5.4685   
     axis 180 30 90   XYZ
    dof rx ry rz
    limits (-90.0 60.0)
           (-90.0 90.0)
           (-90.0 90.0)
  end
  begin
     id 26 
     name rradius
     direction -1 -4.48964e-011 -1.1079e-027   
     length 3.22411   
     axis 180 30 90   XYZ
    dof rx
    limits (-10.0 170.0)
  end
  begin
     id 27 
     name rwrist
     direction -1 -4.48973e-011 2.56952e-028   
     length 1.61206   
     axis -5.12785e-016 -90 -90   XYZ
    dof ry
    limits (-180.0 0.0)
  end
  begin
     id 28
     name rhand
     direction -1 -4.48957e-011 5.13905e-028   
     length 0.74528   
     axis -3.27915e-016 -90 -90   XYZ
    dof rx rz
    limits (-90.0 90.0)
           (-45.0 45.0)
  end
  begin
     id 29
     name rfingers
     direction -1 -4.4901e-011 1.02781e-027   
     length 0.600864   
     axis -6.5583e-016 -90 -90   XYZ
    dof rx
    limits (0.0 90.0)
  end
  begin
     id 30
     name rthumb
     direction -0.707107 -6.34972e-011 0.707107   
     length 0.862724   
     axis -90 -45 -2.85299e-015   XYZ
    dof rx rz
    limits (-45.0 45.0)
           (-45.0 45.0)
  end
:hierarchy
  begin
    root lhipjoint rhipjoint lowerback
    lhipjoint lfemur
    lfemur ltibia
    ltibia lfoot
    lfoot ltoes
    rhipjoint rfemur
    rfemur rtibia
    rtibia rfoot
    rfoot rtoes
    lowerback upperback
    upperback thorax
    thorax lowerneck lclavicle rclavicle
    lowerneck upperneck
    upperneck head
    lclavicle lhumerus
    lhumerus lradius
    lradius lwrist
    lwrist lhand lthumb
    lhand lfingers
    rclavicle rhumerus
    rhumerus rradius
    rradius rwrist
    rwrist rhand rthumb
    rhand rfingers
  end

#!OML:ASF G:\Work\Work\Patient Classification 1\Liu\Session 1\Liu.ASF
:FULLY-SPECIFIED
:DEGREES
194
root 10.0822 15.9011 -16.0274 7.63671 -2.37959 -6.34671
lowerback -0.710902 1.97011 7.36469
upperback 0.26379 2.54741 0.565706
thorax 0.967395 1.31185 -3.49343
lowerneck -23.243 -6.32755 -14.2898
upperneck 18.6034 -6.84676 12.3922
head 10.7788 -2.72143 5.77034
rclavicle 9.79014e-015 -8.34896e-015
rhumerus -30.7804 23.2886 -87.2296
rradius 45.3232
rwrist -14.2331
rhand -18.1437 21.003
rfingers 7.12502
rthumb 8.13166 -8.82055
lclavicle 9.79014e-015 -8.34896e-015
lhumerus -43.55 -1.29572 85.799
lradius 22.5481
lwrist -8.09215
lhand -11.9931 32.0087
lfingers 7.12502
lthumb 14.0637 61.5129
rfemur 20.3519 0.144714 31.0478
rtibia 1.90833e-014
rfoot -5.36176 2.21839
rtoes -21.1045
lfemur -44.2952 -0.777611 -13.8592
ltibia 21.6072
lfoot -7.75695 6.92022
ltoes -3.23398
195
root 10.091 15.892 -15.8131 7.63366 -2.46675 -6.38301
lowerback -0.708062 2.03698 7.33116
upperback 0.208577 2.64025 0.495243
thorax 0.921166 1.35535 -3.54646
lowerneck -22.9326 -6.33187 -14.3873
upperneck 18.4232 -6.91252 12.6462
head 10.6823 -2.73869 5.8675
rclavicle 5.13361e-014 2.64384e-014
rhumerus -30.7925 22.8707 -87.2536
rradius 45.3743
rwrist -14.0024
rhand -18.3604 21.1191
rfingers 7.12502
rthumb 7.92252 -8.7124
lclavicle 5.13361e-014 2.64384e-014
lhumerus -43.5948 -0.215652 84.7925
lradius 21.8717
lwrist -9.44409
lhand -11.9234 31.9604
lfingers 7.12502
lthumb 14.1308 61.4599
rfemur 21.0017 0.0757175 30.8605
rtibia -9.85972e-014
rfoot -3.8712 2.38114
rtoes -20.9021
lfemur -43.9227 -0.0887382 -14.4328
ltibia 22.0861
lfoot -6.34543 6.43161
ltoes -4.05201
196
root 10.1059 15.8847 -15.5954 7.60462 -2.27436 -6.25436
lowerback -0.732601 2.00128 7.23709
upperback 0.184324 2.59341 0.403299
thorax 0.904453 1.33073 -3.58997
lowerneck -23.0797 -6.43282 -14.4497
upperneck 18.5816 -7.04169 12.7082
head 10.7926 -2.79116 5.88459
rclavicle 1.4238e-014 -3.37934e-015
rhumerus -30.7855 22.533 -87.2273
rradius 45.3634
rwrist -13.9052
rhand -18.3959 21.1606
rfingers 7.12502
rthumb 7.88826 -8.67226
lclavicle 1.4238e-014 -3.37934e-015
lhumerus -43.5442 0.806672 83.8753
lradius 21.2515
lwrist -10.6177
lhand -11.4156 32.6251
lfingers 7.12502
lthumb 14.6201 62.0897
rfemur 21.847 -0.269087 30.4854
rtibia -2.8625e-014
rfoot -2.12755 2.36772
rtoes -19.0719
lfemur -43.7088 0.52513 -15.3426
ltibia 22.8353
lfoot -3.89415 6.24024
ltoes -9.25723
197
root 10.1234 15.8929 -15.3689 7.54489 -2.11865 -6.11198
lowerback -0.739156 1.97206 7.11472
upperback 0.177437 2.55615 0.324489
thorax 0.894861 1.31139 -3.60411
lowerneck -23.376 -6.44121 -14.5489
upperneck 18.8462 -7.04202 12.8761
head 10.9559 -2.77097 5.97557
rclavicle 2.11209e-015 3.57812e-015
rhumerus -30.6536 22.249 -87.1415
rradius 45.2322
rwrist -14.0786
rhand -18.3794 21.2629
rfingers 7.12502
rthumb 7.90414 -8.56931
lclavicle 2.11209e-015 3.57812e-015
lhumerus -43.4878 1.98236 82.874
lradius 20.6099
lwrist -12.0202
lhand -10.969 33.214
lfingers 7.12502
lthumb 15.0503 62.6469
rfemur 22.6578 -0.583211 30.093
rtibia -3.18055e-015
rfoot -0.204701 2.31421
rtoes -18.4092
lfemur -43.6866 0.74512 -15.923
ltibia 23.8184
lfoot -1.77369 7.39269
ltoes -5.17638
198
root 10.1357 15.917 -15.1412 7.42541 -2.2226 -5.99224
lowerback -0.56714 2.03825 6.86365
upperback 0.141375 2.66288 0.265674
thorax 0.76449 1.35867 -3.52951
lowerneck -23.588 -6.43558 -14.556
upperneck 19.0579 -7.05869 13.0248
head 11.0832 -2.75589 6.03967
rclavicle -2.41772e-014 -2.50469e-014
rhumerus -30.5486 21.8731 -87.0561
rradius 45.0436
rwrist -14.173
rhand -18.3993 21.5633
rfingers 7.12502
rthumb 7.88499 -8.26965
lclavicle -2.41772e-014 -2.50469e-014
lhumerus -43.6057 3.31863 81.6911
lradius 19.8603
lwrist -13.9466
lhand -11.3965 32.2906
lfingers 7.12502
lthumb 14.6386 61.7539
rfemur 23.3655 -0.659922 29.7193
rtibia -6.04305e-014
rfoot 1.82351 2.34245
rtoes -19.1522
lfemur -43.7527 0.819338 -16.1045
ltibia 24.9648
lfoot -0.11553 8.78451
ltoes -3.46883
199
root 10.1448 15.9413 -14.92 7.26681 -2.14911 -5.69835
lowerback -0.343628 1.99856 6.39184
upperback 0.093765 2.63302 0.18861
thorax 0.568632 1.33516 -3.35625
lowerneck -23.5328 -6.46425 -14.4057
upperneck 19.0743 -7.1336 12.9104
head 11.0796 -2.79374 5.95663
rclavicle 9.39258e-015 -3.37934e-015
rhumerus -30.8206 21.304 -87.0231
rradius 45.3335
rwrist -13.8332
rhand -18.3203 21.5394
rfingers 7.12502
rthumb 7.96122 -8.29069
lclavicle 9.39258e-015 -3.37934e-015
lhumerus -43.7589 4.90582 80.3191
lradius 18.9594
lwrist -15.829
lhand -12.1246 30.7385
lfingers 7.12502
lthumb 13.9369 60.2514
rfemur 24.0752 -0.923708 29.1595
rtibia -1.90833e-014
rfoot 4.15033 2.19146
rtoes -17.935
lfemur -43.6591 0.75389 -16.4298
ltibia 26.0896
lfoot 1.13032 9.61726
ltoes -4.73555
200
root 10.1537 15.958 -14.6997 7.05506 -1.87787 -5.22982
lowerback -0.0575644 1.86465 5.7504
upperback 0.0467838 2.47924 0.0819184
thorax 0.32077 1.24896 -3.12234
lowerneck -23.4229 -6.50832 -14.3227
upperneck 19.0491 -7.22073 12.8372
head 11.057 -2.83912 5.89758
rclavicle 4.82053e-015 -1.66979e-014
rhumerus -31.3033 20.5808 -86.9766
rradius 45.9573
rwrist -13.3219
rhand -18.1283 21.4114
rfingers 7.12502
rthumb 8.14648 -8.41157
lclavicle 4.82053e-015 -1.66979e-014
lhumerus -43.8631 6.42357 79.0473
lradius 18.1356
lwrist -17.3482
lhand -12.7462 29.8893
lfingers 7.12502
lthumb 13.3379 59.4424
rfemur 24.85 -1.40337 28.4504
rtibia -1.90833e-014
rfoot 6.71334 1.55615
rtoes -15.4346
lfemur -43.2518 0.672442 -17.0537
ltibia 27.0843
lfoot 1.9264 10.0106
ltoes -4.98647
201
root 10.1568 15.966 -14.4802 6.82502 -1.74786 -4.6577
lowerback 0.439073 1.77619 4.91254
upperback -0.0861486 2.39477 -0.0477239
thorax -0.131489 1.19236 -2.80893
lowerneck -23.4278 -6.57648 -14.3129
upperneck 19.186 -7.33688 12.8505
head 11.1274 -2.89003 5.8853
rclavicle -4.45775e-014 0
rhumerus -31.7433 20.1274 -87.0816
rradius 46.1046
rwrist -13.1993
rhand -18.0223 21.5358
rfingers 7.12502
rthumb 8.24879 -8.28314
lclavicle -4.45775e-014 0
lhumerus -43.9992 7.87626 77.7702
lradius 17.3777
lwrist -18.9898
lhand -13.1207 29.5347
lfingers 7.12502
lthumb 12.9768 59.1111
rfemur 25.6511 -1.77191 27.6885
rtibia 6.36111e-015
rfoot 9.45724 0.568832
rtoes -13.464
lfemur -42.8338 1.07969 -17.9983
ltibia 28.0647
lfoot 2.63845 9.64629
ltoes -5.41907
202
root 10.1544 15.9808 -14.2709 6.8155 -1.75138 -4.0135
lowerback 0.675225 1.76332 3.92701
upperback -0.208704 2.38535 -0.176262
thorax -0.424946 1.1811 -2.40102
lowerneck -23.355 -6.62605 -14.4115
upperneck 19.1608 -7.40828 12.9578
head 11.1256 -2.91988 5.93022
rclavicle -3.37934e-014 5.96354e-015
rhumerus -31.9894 19.836 -87.1721
rradius 45.9366
rwrist -13.1429
rhand -18.079 21.3309
rfingers 7.12502
rthumb 8.19409 -8.49018
lclavicle -3.37934e-014 5.96354e-015
lhumerus -44.1106 8.90102 76.828
lradius 17.0397
lwrist -20.0717
lhand -12.9453 29.4729
lfingers 7.12502
lthumb 13.1459 59.0385
rfemur 26.0888 -2.00372 26.898
rtibia 8.5875e-014
rfoot 12.6135 -0.657344
rtoes -11.223
lfemur -42.8339 1.87356 -19.1245
ltibia 29.1136
lfoot 3.45372 8.50933
ltoes -6.36784
203
root 10.1857 16.0131 -14.0135 6.14351 -2.27921 -3.42796
lowerback 0.825581 1.97265 3.44323
upperback 0.0559238 2.66031 -0.371788
thorax -0.2308 1.32691 -2.33181
lowerneck -23.1676 -6.68805 -14.5458
upperneck 19.0735 -7.4877 13.0359
head 11.0812 -2.96312 5.96635
rclavicle 1.3418e-015 6.75868e-015
rhumerus -32.2313 19.4682 -87.1439
rradius 45.8076
rwrist -13.0762
rhand -18.2939 20.9593
rfingers 7.12502
rthumb 7.98665 -8.86982
lclavicle 1.3418e-015 6.75868e-015
lhumerus -44.1972 9.3332 76.3406
lradius 16.994
lwrist -20.6861
lhand -12.6707 29.4011
lfingers 7.12502
lthumb 13.4107 58.9494
rfemur 22.8624 -1.88331 25.9293
rtibia 7.49779
rfoot 13.0596 -0.980769
rtoes -8.79146
lfemur -41.745 2.07067 -19.8591
ltibia 30.0491
lfoot 3.25279 8.04848
ltoes -4.81555
204
root 10.2415 16.0569 -13.6846 4.98558 -3.99668 -2.83907
lowerback 0.640927 2.57541 3.28527
upperback 0.6103 3.44801 -0.710326
thorax 0.504909 1.74192 -2.56584
lowerneck -23.2686 -6.79145 -14.5324
upperneck 19.3837 -7.64695 13.0077
head 11.2387 -3.03538 5.93548
rclavicle 5.12864e-014 -3.57812e-015
rhumerus -32.5969 19.0865 -87.2585
rradius 45.7167
rwrist -13.2794
rhand -18.3611 21.0668
rfingers 7.12502
rthumb 7.92182 -8.7648
lclavicle 5.12864e-014 -3.57812e-015
lhumerus -44.0803 9.66066 75.824
lradius 16.7431
lwrist -21.0667
lhand -12.4905 29.6244
lfingers 7.12502
lthumb 13.5843 59.1612
rfemur 20.8232 -0.511319 24.507
rtibia 13.9557
rfoot 14.092 -1.43068
rtoes -7.01985
lfemur -39.4707 2.94661 -20.553
ltibia 30.8621
lfoot 2.22631 7.6725
ltoes -4.3619
205
root 10.2568 16.0856 -13.4538 4.92111 -3.90931 -2.37793
lowerback 0.585786 2.5544 2.84301
upperback 0.602645 3.41748 -0.895775
thorax 0.511023 1.72526 -2.50697
lowerneck -23.6439 -6.90281 -14.4867
upperneck 19.8801 -7.80621 12.9747
head 11.5165 -3.09673 5.90321
rclavicle 1.00386e-014 1.19271e-014
rhumerus -32.8778 18.7406 -87.3929
rradius 45.6674
rwrist -13.4065
rhand -18.1178 21.0482
rfingers 7.12502
rthumb 8.15664 -8.77433
lclavicle 1.00386e-014 1.19271e-014
lhumerus -43.8004 9.86694 75.4491
lradius 16.5994
lwrist -20.9973
lhand -12.1966 30.155
lfingers 7.12502
lthumb 13.8676 59.6726
rfemur 18.2524 -1.20002 23.5896
rtibia 18.9365
rfoot 15.5869 -1.37936
rtoes -7.7093
lfemur -38.8593 3.31407 -21.3709
ltibia 31.4173
lfoot 2.19293 6.57054
ltoes -5.58684
206
root 10.2727 16.1251 -13.2246 4.72914 -3.85103 -1.93356
lowerback 0.722508 2.54717 2.42358
upperback 0.596222 3.40994 -1.04791
thorax 0.411975 1.71859 -2.43601
lowerneck -23.7294 -6.96999 -14.4695
upperneck 20.1038 -7.89548 12.8934
head 11.6264 -3.14316 5.85978
rclavicle 3.72721e-015 -8.74653e-015
rhumerus -33.1987 18.5146 -87.5246
rradius 45.5391
rwrist -13.4657
rhand -18.1686 21.0759
rfingers 7.12502
rthumb 8.10758 -8.74858
lclavicle 3.72721e-015 -8.74653e-015
lhumerus -43.5711 10.1824 75.0121
lradius 16.3348
lwrist -21.5122
lhand -12.055 30.1932
lfingers 7.12502
lthumb 14.004 59.7015
rfemur 15.7809 -1.8691 22.7451
rtibia 23.8046
rfoot 17.2265 -1.10503
rtoes -8.83255
lfemur -37.911 3.50977 -22.0548
ltibia 31.6429
lfoot 1.51207 5.99599
ltoes -5.08448
207
root 10.2917 16.1708 -12.9966 4.47291 -3.71749 -1.28822
lowerback 0.883446 2.52852 1.8986
upperback 0.567595 3.38531 -1.27948
thorax 0.274454 1.70284 -2.38931
lowerneck -23.5343 -6.98735 -14.4539
upperneck 20.1676 -7.95567 12.873
head 11.6218 -3.17843 5.841
rclavicle -6.92268e-014 1.98785e-015
rhumerus -33.6898 18.3123 -87.7498
rradius 45.4576
rwrist -13.646
rhand -18.4255 21.4359
rfingers 7.12502
rthumb 7.85967 -8.39802
lclavicle -6.92268e-014 1.98785e-015
lhumerus -43.4469 10.2785 74.6441
lradius 16.0547
lwrist -22.1752
lhand -12.3845 29.6191
lfingers 7.12502
lthumb 13.6865 59.149
rfemur 13.2479 -2.66428 21.6526
rtibia 28.9547
rfoot 19.0029 -1.13775
rtoes -7.42945
lfemur -36.56 3.50186 -22.91
ltibia 31.3304
lfoot 0.802763 5.52179
ltoes -5.10994
